<svg width="46" height="46" viewBox="0 0 46 46" fill="none" xmlns="http://www.w3.org/2000/svg">
<path fillRule="evenodd" clipRule="evenodd" d="M38.1235 6H7.87648C6.84002 6 6 6.84002 6 7.87648V38.1235C6 39.1599 6.84002 40.0001 7.87648 40.0001H24.1605V26.8335H19.7296V21.7021H24.1605V17.918C24.1605 13.5265 26.8426 11.1353 30.7602 11.1353C32.6368 11.1353 34.2496 11.2749 34.7195 11.3373V15.9268L32.0025 15.928C29.872 15.928 29.4594 16.9404 29.4594 18.426V21.7021H34.5406L33.8791 26.8335H29.4594V40.0001H38.1235C39.1599 40.0001 40 39.1599 40 38.1235V7.87648C40 6.84002 39.1599 6 38.1235 6Z" fill="white"/>
</svg>
