<svg width="46" height="46" viewBox="0 0 46 46" fill="none" xmlns="http://www.w3.org/2000/svg">
<path fill-rule="evenodd" clip-rule="evenodd" d="M22.9947 6C18.3792 6 17.8004 6.01956 15.9878 6.10227C14.1789 6.18477 12.9435 6.47209 11.8625 6.89223C10.745 7.32647 9.79721 7.90758 8.85236 8.85236C7.90758 9.79721 7.32647 10.745 6.89223 11.8625C6.47209 12.9435 6.18477 14.1789 6.10227 15.9878C6.01956 17.8004 6 18.3792 6 22.9947C6 27.6101 6.01956 28.1888 6.10227 30.0015C6.18477 31.8104 6.47209 33.0458 6.89223 34.1268C7.32647 35.2443 7.90758 36.1921 8.85236 37.1369C9.79721 38.0817 10.745 38.6628 11.8625 39.0971C12.9435 39.5172 14.1789 39.8045 15.9878 39.887C17.8004 39.9697 18.3792 39.9893 22.9947 39.9893C27.6101 39.9893 28.1888 39.9697 30.0015 39.887C31.8104 39.8045 33.0458 39.5172 34.1268 39.0971C35.2443 38.6628 36.1921 38.0817 37.1369 37.1369C38.0817 36.1921 38.6628 35.2443 39.0971 34.1268C39.5172 33.0458 39.8045 31.8104 39.887 30.0015C39.9697 28.1888 39.9893 27.6101 39.9893 22.9947C39.9893 18.3792 39.9697 17.8004 39.887 15.9878C39.8045 14.1789 39.5172 12.9435 39.0971 11.8625C38.6628 10.745 38.0817 9.79721 37.1369 8.85236C36.1921 7.90758 35.2443 7.32647 34.1268 6.89223C33.0458 6.47209 31.8104 6.18477 30.0015 6.10227C28.1888 6.01956 27.6101 6 22.9947 6ZM22.9947 9.06209C27.5324 9.06209 28.0699 9.07943 29.8619 9.16119C31.5189 9.23675 32.4187 9.5136 33.0176 9.74634C33.8109 10.0546 34.377 10.4229 34.9716 11.0176C35.5664 11.6123 35.9346 12.1784 36.2429 12.9717C36.4757 13.5705 36.7525 14.4704 36.8281 16.1273C36.9098 17.9194 36.9272 18.4569 36.9272 22.9947C36.9272 27.5324 36.9098 28.0699 36.8281 29.8619C36.7525 31.5189 36.4757 32.4187 36.2429 33.0176C35.9346 33.8109 35.5664 34.377 34.9716 34.9716C34.377 35.5664 33.8109 35.9346 33.0176 36.2429C32.4187 36.4757 31.5189 36.7525 29.8619 36.8281C28.0702 36.9098 27.5327 36.9272 22.9947 36.9272C18.4565 36.9272 17.9192 36.9098 16.1273 36.8281C14.4704 36.7525 13.5705 36.4757 12.9717 36.2429C12.1784 35.9346 11.6123 35.5664 11.0176 34.9716C10.423 34.377 10.0546 33.8109 9.74634 33.0176C9.5136 32.4187 9.23675 31.5189 9.16119 29.8619C9.07943 28.0699 9.06209 27.5324 9.06209 22.9947C9.06209 18.4569 9.07943 17.9194 9.16119 16.1273C9.23675 14.4704 9.5136 13.5705 9.74634 12.9717C10.0546 12.1784 10.4229 11.6123 11.0176 11.0176C11.6123 10.4229 12.1784 10.0546 12.9717 9.74634C13.5705 9.5136 14.4704 9.23675 16.1273 9.16119C17.9194 9.07943 18.4569 9.06209 22.9947 9.06209Z" fill="white"/>
<path fill-rule="evenodd" clip-rule="evenodd" d="M22.9946 28.6594C19.8659 28.6594 17.3297 26.1232 17.3297 22.9946C17.3297 19.8659 19.8659 17.3297 22.9946 17.3297C26.1232 17.3297 28.6594 19.8659 28.6594 22.9946C28.6594 26.1232 26.1232 28.6594 22.9946 28.6594ZM22.9946 14.2676C18.1747 14.2676 14.2676 18.1747 14.2676 22.9946C14.2676 27.8144 18.1747 31.7215 22.9946 31.7215C27.8144 31.7215 31.7215 27.8144 31.7215 22.9946C31.7215 18.1747 27.8144 14.2676 22.9946 14.2676Z" fill="white"/>
<path fill-rule="evenodd" clip-rule="evenodd" d="M34.1058 13.9227C34.1058 15.049 33.1927 15.962 32.0664 15.962C30.9402 15.962 30.0271 15.049 30.0271 13.9227C30.0271 12.7964 30.9402 11.8833 32.0664 11.8833C33.1927 11.8833 34.1058 12.7964 34.1058 13.9227Z" fill="white"/>
</svg>
