<svg width="46" height="46" viewBox="0 0 46 46" fill="none" xmlns="http://www.w3.org/2000/svg">
<circle cx="23" cy="23" r="16" fill="#111820"/>
<path fill-rule="evenodd" clip-rule="evenodd" d="M22 30.4853C22 31.0376 22.4478 31.4853 23 31.4853C23.5523 31.4853 24 31.0376 24 30.4853L24 24L30.4853 24C31.0376 24 31.4853 23.5523 31.4853 23C31.4853 22.4477 31.0376 22 30.4853 22L24 22L24 15.5147C24 14.9624 23.5523 14.5147 23 14.5147C22.4477 14.5147 22 14.9624 22 15.5147L22 22L15.5147 22C14.9624 22 14.5147 22.4477 14.5147 23C14.5147 23.5523 14.9624 24 15.5147 24L22 24L22 30.4853Z" fill="white"/>
</svg>
