<svg width="32" height="32" viewBox="0 0 32 32" fill="none" xmlns="http://www.w3.org/2000/svg">
<path fill-rule="evenodd" clip-rule="evenodd" d="M16 2C8.26801 2 2 8.26801 2 16C2 23.732 8.26801 30 16 30C23.732 30 30 23.732 30 16C30 8.26801 23.732 2 16 2ZM0 16C0 7.16344 7.16344 0 16 0C24.8366 0 32 7.16344 32 16C32 24.8366 24.8366 32 16 32C7.16344 32 0 24.8366 0 16Z" fill="white"/>
<path fill-rule="evenodd" clip-rule="evenodd" d="M22.4474 18.1057C22.9413 18.3528 23.1414 18.9536 22.8943 19.4475C22.2139 20.8073 21.2268 21.9546 20.0182 22.7603C18.8079 23.5672 17.4217 24 16 24C14.5783 24 13.1921 23.5673 11.9818 22.7604C10.7732 21.9547 9.78611 20.8074 9.10568 19.4476C8.85854 18.9537 9.05859 18.353 9.5525 18.1058C10.0464 17.8587 10.6471 18.0587 10.8943 18.5526C11.431 19.6253 12.1935 20.4978 13.0912 21.0963C13.9872 21.6936 14.9899 22 16 22C17.01 22 18.0128 21.6936 18.9088 21.0962C19.8065 20.4978 20.5689 19.6252 21.1057 18.5525C21.3528 18.0586 21.9535 17.8586 22.4474 18.1057Z" fill="white"/>
<path d="M11 15C12.1046 15 13 14.1046 13 13C13 11.8954 12.1046 11 11 11C9.89543 11 9 11.8954 9 13C9 14.1046 9.89543 15 11 15Z" fill="white"/>
<path d="M21 15C22.1046 15 23 14.1046 23 13C23 11.8954 22.1046 11 21 11C19.8954 11 19 11.8954 19 13C19 14.1046 19.8954 15 21 15Z" fill="white"/>
</svg>
