<svg width="120" height="21" viewBox="0 0 120 21" fill="none" xmlns="http://www.w3.org/2000/svg">
<g clip-path="url(#clip0_41_1)">
<path d="M0 0H4.056L7.50506 14.3325L10.981 0H15.037L9.58896 20.706H5.41698C3.59129 13.8054 1.78563 6.90341 0 0Z" fill="#111820"/>
<path d="M19.5343 20.7064H15.7683V5.64937H19.5343V20.7064ZM17.67 4.67077C17.0657 4.67077 16.4861 4.4274 16.0587 3.9942C15.6314 3.56099 15.3914 2.97343 15.3914 2.36078C15.3914 1.74535 15.6325 1.15512 16.0618 0.71994C16.491 0.284763 17.0733 0.0402832 17.6804 0.0402832C18.2875 0.0402832 18.8697 0.284763 19.2989 0.71994C19.7282 1.15512 19.9694 1.74535 19.9694 2.36078C19.9694 2.66502 19.9101 2.96626 19.7949 3.24721C19.6797 3.52816 19.511 3.78326 19.2983 3.99791C19.0856 4.21256 18.8332 4.38251 18.5556 4.49797C18.2779 4.61344 17.9805 4.67216 17.6804 4.67077" fill="#111820"/>
<path d="M25.057 10.8971H29.722V10.1033C29.722 7.90038 28.823 7.16328 27.404 7.16328C26.07 7.16328 25.057 7.92558 25.057 9.68328V10.8971ZM33.488 15.4205V15.5402C33.488 18.5642 31.228 21.0002 27.404 21.0002C23.522 21.0002 21.291 18.5033 21.291 14.5385V10.5149C21.291 6.49128 23.522 4.00488 27.404 4.00488C31.228 4.00488 33.488 6.32538 33.488 10.3784V13.5998H25.057V15.3911C25.0476 16.0324 25.2893 16.6513 25.7292 17.1123C26.1692 17.5732 26.7714 17.8386 27.404 17.8502C28.678 17.8502 29.722 17.1173 29.722 15.767V15.4205H33.488Z" fill="#111820"/>
<path d="M34.3579 4.494C36.4709 4.494 37.1959 3.0996 37.1959 0H39.7274V4.2294H42.7104V7.6062H39.7274V17.4174H42.7684V20.853C42.3168 20.9099 41.8623 20.9393 41.4074 20.9412C37.0324 20.9412 35.9613 18.6312 35.9613 14.5971V7.6062H34.3952C34.3952 6.5562 34.3683 5.5503 34.3683 4.494" fill="#111820"/>
<path d="M55.8852 14.303C55.8852 18.4799 53.7968 20.9999 49.7988 20.9999C45.917 20.9999 43.6858 18.503 43.6858 14.5382V10.5482C43.6858 6.52461 45.917 3.99831 49.7988 3.99831C53.826 3.98991 55.8852 6.49101 55.8852 10.7792H52.1168C52.1168 8.46921 51.2469 7.48851 49.7988 7.48851C48.409 7.48851 47.4519 8.25291 47.4519 10.3382V14.2148C47.4519 16.3883 48.2351 17.5349 49.7988 17.5349C51.1598 17.5349 52.1168 16.5353 52.1168 14.303H55.8852Z" fill="#111820"/>
<path d="M60.9538 10.8971H65.6209V10.1033C65.6209 7.90038 64.7218 7.16328 63.3028 7.16328C61.9688 7.16328 60.956 7.92558 60.956 9.68328L60.9538 10.8971ZM69.3848 15.4205V15.5402C69.3848 18.5642 67.1247 21.0002 63.301 21.0002C59.4189 21.0002 57.188 18.5033 57.188 14.5385V10.5149C57.188 6.49128 59.4189 4.00488 63.301 4.00488C67.1247 4.00488 69.3848 6.32538 69.3848 10.3784V13.5998H60.9538V15.3911C60.9445 16.0324 61.1864 16.6513 61.6262 17.1123C62.0663 17.5732 62.6685 17.8386 63.301 17.8502C64.5852 17.8502 65.6209 17.1236 65.6209 15.7733V15.4205H69.3848Z" fill="#111820"/>
<path d="M83.3489 10.8971H88.0138V10.1033C88.0138 7.90038 87.1147 7.16328 85.6958 7.16328C84.3639 7.16328 83.3489 7.92558 83.3489 9.68328V10.8971ZM91.7799 15.4205V15.5402C91.7799 18.5642 89.5199 21.0002 85.6958 21.0002C81.8137 21.0002 79.5828 18.5033 79.5828 14.5385V10.5149C79.5828 6.49128 81.8137 4.00488 85.6958 4.00488C89.5199 4.00488 91.7799 6.32538 91.7799 10.3784V13.5998H83.3489V15.3911C83.3401 16.0322 83.5819 16.6509 84.0217 17.1117C84.4614 17.5725 85.0633 17.838 85.6958 17.8502C86.9696 17.8502 88.0138 17.1173 88.0138 15.767V15.4205H91.7799Z" fill="#111820"/>
<path d="M101.342 7.81181H97.2856V20.7058H93.5176V4.19981H97.0537V6.43211C97.5219 4.61981 99.4877 3.77981 101.342 4.02341V7.81181Z" fill="#111820"/>
<path d="M110.351 14.5676V10.3089C110.351 8.31179 109.367 7.43189 108.033 7.43189C106.643 7.43189 105.717 8.34119 105.717 10.3719V14.5718C105.717 16.6277 106.643 17.5391 108.033 17.5391C109.423 17.5391 110.351 16.5899 110.351 14.5676ZM101.922 14.8617V10.08C101.922 5.82119 103.89 4.00049 106.73 4.00049C109.106 4.00049 110.351 5.52719 110.583 6.05639V4.19999H114.119V20.7059H110.583V18.8852C110.351 19.4438 109.106 20.9706 106.73 20.9706C103.83 20.9706 101.922 19.0805 101.922 14.8617Z" fill="#111820"/>
<path d="M117.711 20.9415C117.411 20.9429 117.114 20.8842 116.836 20.7687C116.558 20.6532 116.306 20.4833 116.093 20.2687C115.88 20.054 115.712 19.7989 115.596 19.518C115.481 19.237 115.422 18.9358 115.422 18.6315C115.422 18.0161 115.663 17.4259 116.092 16.9907C116.522 16.5555 117.104 16.311 117.711 16.311C118.318 16.311 118.9 16.5555 119.33 16.9907C119.759 17.4259 120 18.0161 120 18.6315C120 19.2442 119.76 19.8317 119.333 20.265C118.905 20.6982 118.326 20.9415 117.721 20.9415" fill="#111820"/>
<path d="M70.2532 4.494C72.3681 4.494 73.0929 3.0996 73.0929 0H75.614V4.2294H78.5971V7.6062H75.614V17.4174H78.655V20.853C78.2035 20.9099 77.7489 20.9393 77.294 20.9412C72.919 20.9412 71.8483 18.6312 71.8483 14.5971V7.6062H70.282C70.282 6.5562 70.2532 5.5503 70.2532 4.494Z" fill="#111820"/>
</g>
<defs>
<clipPath id="clip0_41_1">
<rect width="120" height="21" fill="white"/>
</clipPath>
</defs>
</svg>
